# xmcd
#
# Track frame offsets: 
#        150
#        19958
#        37185
#        54349
#        70623
#        87554
#        104328
#        125436
#        143551
#        158035
#        177095
#        197712
#        214167
#        227496
#        244899
#
# Disc length: 3522 seconds
#
# Revision: 1
# Processed by: cddbd v1.5.2PL0 Copyright (c) Steve Scherf et al.
# Submitted via: ExactAudioCopyFreeDBPlugin 1.0
#
DISCID=cd0dc00f
DTITLE=八只眼 - DTS51不老的金曲
DYEAR=2010
DGENRE=DRS
TTITLE0=浏阳河
TTITLE1=牧歌
TTITLE2=乌苏里船歌
TTITLE3=在那遥远的地方
TTITLE4=花儿为什么这样红
TTITLE5=军港之夜
TTITLE6=送别
TTITLE7=阿瓦日古丽
TTITLE8=吐鲁番的葡萄熟了
TTITLE9=万泉河水
TTITLE10=草原之夜
TTITLE11=都达尔和玛丽亚
TTITLE12=南泥湾
TTITLE13=谁不说俺家乡好
TTITLE14=太阳最红，毛主席最亲
EXTD=
EXTT0=
EXTT1=
EXTT2=
EXTT3=
EXTT4=
EXTT5=
EXTT6=
EXTT7=
EXTT8=
EXTT9=
EXTT10=
EXTT11=
EXTT12=
EXTT13=
EXTT14=
PLAYORDER=
